<?xml version="1.0" encoding="UTF-8"?>
<svg version="1.1" xmlns="http://www.w3.org/2000/svg" width="1137" height="1116">
<path d="M0 0 C2.7797751 1.71378465 5.52901699 3.47034061 8.26953125 5.24609375 C12.05856728 7.69610461 15.9593531 9.8528866 19.94140625 11.97265625 C30.61561399 17.77532291 41.05431945 24.03085256 51.45898438 30.30126953 C61.72563805 36.48723228 72.01110335 42.62480996 82.5703125 48.30078125 C85.8734742 50.11489863 89.0849759 52.06605727 92.3046875 54.0234375 C95.49718294 55.93070197 98.73148752 57.76020067 101.96875 59.58984375 C106.29564996 62.0393842 110.54358396 64.57541487 114.71875 67.27734375 C119.08815415 70.10310439 123.56071801 72.60398264 128.1484375 75.0546875 C132.47395046 77.45188913 136.63927065 80.09670177 140.8359375 82.7109375 C143.73625013 84.47310789 146.66360844 86.11621044 149.65625 87.71484375 C153.39342872 89.71342194 156.97346419 91.84935775 160.53125 94.15234375 C164.84460669 96.93906296 169.23343493 99.43904456 173.7578125 101.86328125 C183.67193839 107.28174146 193.43665647 112.99970863 203.03125 118.96484375 C207.66847798 121.84776102 212.37102357 124.52489136 217.1796875 127.109375 C226.83212276 132.33226805 236.21386279 137.95881101 245.55322266 143.71655273 C250.46410986 146.73170467 255.43754278 149.55751915 260.52734375 152.26171875 C263.27249863 153.78632895 265.8949822 155.44674151 268.53125 157.15234375 C272.84460669 159.93906296 277.23343493 162.43904456 281.7578125 164.86328125 C288.50440939 168.55056213 295.13566718 172.44129336 301.76757812 176.33007812 C303.78139253 177.50639594 305.80336531 178.66690186 307.828125 179.82421875 C320.7988943 187.43617256 328.77952044 196.10109055 333.03125 210.65234375 C333.28540033 213.87685543 333.28540033 213.87685543 333.29131222 217.42947483 C333.29511789 218.08928051 333.29892356 218.74908618 333.30284455 219.42888597 C333.31314219 221.6374497 333.3092576 223.84575554 333.30540466 226.05433655 C333.30985808 227.65479976 333.31517247 229.25526077 333.32127339 230.85571855 C333.33545172 235.2522937 333.33711671 239.64879814 333.33667648 244.04539287 C333.33832486 248.78792652 333.35139189 253.53043106 333.36286926 258.27294922 C333.385718 268.64297037 333.39363993 279.01297105 333.39869571 289.38301396 C333.40195326 295.86008143 333.40847614 302.33714297 333.4156971 308.81420708 C333.43526385 326.75262924 333.45166729 344.69104589 333.45457363 362.62947941 C333.4547612 363.77739915 333.45494877 364.9253189 333.45514202 366.10802409 C333.45550827 368.43508112 333.45587197 370.76213816 333.45623314 373.0891952 C333.45641595 374.24432865 333.45659876 375.39946211 333.45678711 376.58959961 C333.45705793 378.32441876 333.45705793 378.32441876 333.45733423 380.09428477 C333.46087477 398.82839954 333.48788932 417.56239928 333.525285 436.29647417 C333.56338462 455.5374542 333.58273124 474.77837718 333.58303314 494.01939577 C333.58361738 504.81966488 333.59208782 515.61979683 333.62103081 526.42003059 C333.64556692 535.61805943 333.65281256 544.81590108 333.63778328 554.01395381 C333.63062323 558.70423518 333.63143273 563.39414708 333.65419388 568.08438683 C333.67486268 572.38481311 333.67211032 576.68458774 333.65131903 580.98500758 C333.64783915 582.53417938 333.65267 584.08339895 333.66702347 585.63250817 C333.77534334 598.13685629 331.57753783 609.61082514 323.32421875 619.44921875 C317.19002547 625.34306033 309.97901811 630.60050469 302.03125 633.65234375 C300.29999104 634.69864979 298.59247294 635.78490646 296.90625 636.90234375 C292.32238207 639.87234653 287.65896383 642.54482509 282.84765625 645.125 C275.89614578 648.89482052 269.11114376 652.92516129 262.46875 657.21484375 C257.13312371 660.64653433 251.62737822 663.67052617 246.03125 666.65234375 C241.11489464 669.29384316 236.34587287 672.06085221 231.65625 675.08984375 C228.11736312 677.37078605 224.56232263 679.49126847 220.84375 681.46484375 C216.10201616 683.99512518 211.56893095 686.77900987 207.03125 689.65234375 C201.817152 692.94883524 196.57630695 696.0683994 191.12890625 698.96875 C180.19244491 704.9127788 169.50880103 711.31382592 158.94140625 717.88671875 C155.29011371 720.10199959 151.55666686 722.13197442 147.79296875 724.1484375 C143.79492236 726.32559148 139.87640997 728.63295405 135.953125 730.94140625 C131.65437408 733.45858927 127.32568532 735.92121212 122.98828125 738.37109375 C110.15024702 745.64332183 97.500421 753.23980534 84.96875 761.02734375 C80.35717809 763.87877371 75.67822721 766.53295831 70.90234375 769.09765625 C61.78420107 774.0350995 52.90657858 779.31900695 44.1015625 784.79296875 C41.344755 786.46248576 38.56406207 788.01550629 35.71875 789.52734375 C31.02049721 792.03765108 26.52935102 794.80543772 22.03125 797.65234375 C16.68930459 801.02833845 11.32868486 804.26694394 5.734375 807.21484375 C3.76644134 808.26137495 1.82110521 809.35073577 -0.109375 810.46484375 C-11.59761227 816.9984384 -22.83898502 820.61721285 -35.96875 817.71484375 C-49.26373106 813.7880561 -62.11205631 805.3581377 -73.46875 797.58984375 C-77.38628363 794.93424131 -81.44686016 792.85319927 -85.703125 790.796875 C-88.62920507 789.31870007 -91.25081567 787.48278932 -93.96875 785.65234375 C-95.75292992 784.65960067 -97.54547376 783.68181808 -99.34375 782.71484375 C-103.30225575 780.58540366 -107.14811282 778.36660908 -110.921875 775.92578125 C-113.24153138 774.48263625 -115.60824372 773.13056948 -117.98339844 771.78125 C-128.33709986 765.89395101 -138.62697574 759.89908285 -148.81079102 753.72265625 C-153.22716968 751.05798509 -157.71834393 748.58547857 -162.30859375 746.234375 C-163.18644531 745.71230469 -164.06429687 745.19023438 -164.96875 744.65234375 C-165.62144112 744.3135211 -166.27413223 743.97469845 -166.94660187 743.62560844 C-170.36803552 741.55594288 -172.59348088 739.99765168 -173.69628906 736.04417801 C-173.95561354 732.71471949 -173.95801457 729.46819815 -173.87695312 726.12939453 C-173.87812134 724.87030777 -173.87928955 723.61122101 -173.88049316 722.3139801 C-173.88278249 718.87344055 -173.83585797 715.4351462 -173.7799015 711.9951272 C-173.72978405 708.3957839 -173.72518344 704.79638521 -173.71569824 701.19674683 C-173.6908638 694.38596127 -173.62525861 687.57620685 -173.54490232 680.76587474 C-173.45538544 673.01028558 -173.41147305 665.25464634 -173.37133884 657.49866891 C-173.28778788 641.54929732 -173.14713678 625.60095366 -172.96875 609.65234375 C-169.96875 608.65234375 -169.96875 608.65234375 -166.74609375 610.09375 C-165.46010133 610.78972654 -164.18044566 611.49749776 -162.90625 612.21484375 C-161.89860596 612.76857666 -161.89860596 612.76857666 -160.87060547 613.33349609 C-153.89118809 617.19349004 -147.05177425 621.20765119 -140.46875 625.71484375 C-136.55121637 628.37044619 -132.49063984 630.45148823 -128.234375 632.5078125 C-125.30829493 633.98598743 -122.68668433 635.82189818 -119.96875 637.65234375 C-117.36266845 639.11579258 -114.73201127 640.53006655 -112.1015625 641.94921875 C-103.91214257 646.40132235 -95.84977293 650.96622622 -88.15234375 656.234375 C-84.89274431 658.35107374 -81.46922554 660.13073339 -78.04296875 661.9609375 C-74.5248614 663.89656708 -71.0907709 665.94821862 -67.65625 668.02734375 C-60.48745097 672.35071472 -53.32089714 676.64619223 -45.96875 680.65234375 C-44.78345703 681.33876953 -44.78345703 681.33876953 -43.57421875 682.0390625 C-34.53648535 686.55001525 -22.13843462 686.16002569 -12.5 683.8046875 C-9.49854519 682.61459453 -6.77824533 681.24298572 -3.96875 679.65234375 C-2.79594762 679.01753641 -1.62274956 678.38345971 -0.44921875 677.75 C5.51584254 674.47203937 11.24272305 670.9016791 16.86328125 667.0625 C20.04223349 664.99474909 23.37337474 663.25018029 26.71484375 661.4609375 C38.70846741 654.92024521 50.41053299 647.84812978 62.10229492 640.78710938 C66.28260356 638.27092715 70.47139669 635.81775981 74.78125 633.52734375 C79.33552661 631.1069892 83.67522343 628.40750656 88.03125 625.65234375 C94.2405321 621.72679364 100.52859533 618.07582911 107.03125 614.65234375 C112.33764165 611.84003018 117.56838621 609.04333965 122.53125 605.65234375 C126.56777061 602.89465002 130.7480687 600.56535343 135.0546875 598.2578125 C145.50830685 592.61944301 155.69705401 586.50224208 165.91064453 580.44458008 C171.15302418 577.3390744 176.4135782 574.27415261 181.71875 571.27734375 C203.95818331 558.75622216 203.95818331 558.75622216 217.03125 537.65234375 C218.17027208 532.30951423 218.20293587 527.08049416 218.23657227 521.64428711 C218.25142166 520.15204369 218.25142166 520.15204369 218.26657104 518.62965393 C218.29817702 515.33385581 218.32299656 512.03804435 218.34765625 508.7421875 C218.36828224 506.41801126 218.38927994 504.09383829 218.41062927 501.76966858 C218.45461254 496.87633195 218.49549253 491.98298285 218.53393555 487.08959961 C218.58234035 480.93308909 218.63609209 474.77664183 218.69189835 468.62019444 C219.07062441 426.72844318 219.09899192 384.85365418 218.74371052 342.96162128 C218.6932155 337.00251407 218.64670009 331.04343415 218.609375 325.08422852 C218.57250663 319.20597826 218.52623687 313.32787288 218.47318649 307.44974709 C218.45476905 305.23747037 218.43961536 303.02516381 218.42790604 300.81284142 C218.4110095 297.74576094 218.38199615 294.67901666 218.35009766 291.61206055 C218.34793747 290.71712387 218.34577728 289.82218719 218.34355164 288.90013123 C218.17482001 276.18855857 213.78072781 265.87141238 205.05859375 256.61328125 C200.01448124 251.73439016 194.27324393 248.60736376 188.11328125 245.3125 C178.91509209 240.35783537 169.97301406 235.02698261 161.1015625 229.51171875 C158.344755 227.84220174 155.56406207 226.28918121 152.71875 224.77734375 C147.32011482 221.8964931 142.17531179 218.66369905 137.03979492 215.34228516 C132.68786585 212.56356266 128.23015725 210.22871899 123.5949707 207.95825195 C119.31925401 205.78028713 115.24876796 203.27817127 111.15625 200.77734375 C109.38962804 199.70782916 107.62270267 198.63881559 105.85546875 197.5703125 C105.01806152 197.06290527 104.1806543 196.55549805 103.31787109 196.03271484 C98.59064926 193.17901932 93.8118089 190.4153648 89.03125 187.65234375 C87.60409417 186.82564597 86.17701741 185.9988117 84.75 185.171875 C74.90212425 179.466799 74.90212425 179.466799 65.04296875 173.78125 C56.93323452 169.10995934 48.89545785 164.36687297 40.94921875 159.421875 C37.35131654 157.24001462 33.67889302 155.23097068 29.95703125 153.26953125 C24.65603969 150.33947717 19.50607106 147.15067898 14.32543945 144.01416016 C11.56445645 142.34557788 8.79821987 140.68597555 6.03125 139.02734375 C5.11085938 138.46789062 4.19046875 137.9084375 3.2421875 137.33203125 C-6.5172826 131.50384065 -14.48024566 127.95925964 -25.96875 128.15234375 C-26.88914062 128.136875 -27.80953125 128.12140625 -28.7578125 128.10546875 C-39.97078928 128.16864045 -48.35911836 133.19628159 -57.71875 138.90234375 C-59.65577618 140.06589332 -61.59327595 141.22865485 -63.53125 142.390625 C-64.92730469 143.23101318 -64.92730469 143.23101318 -66.3515625 144.08837891 C-69.78039328 146.13736118 -73.24190272 148.12379281 -76.71875 150.08984375 C-83.62770265 154.01686636 -90.43384844 158.08892166 -97.19921875 162.2578125 C-104.47616349 166.73628543 -111.73213384 171.17879017 -119.2734375 175.203125 C-127.21639855 179.47390551 -134.9978667 184.01697263 -142.65625 188.77734375 C-146.39753603 191.10106817 -150.14449148 193.33182753 -154.03125 195.40234375 C-159.45695485 198.30242681 -164.705624 201.47039323 -169.96875 204.65234375 C-176.12046165 208.37066638 -182.28850415 211.99279782 -188.62890625 215.3828125 C-194.28644133 218.45242669 -199.73275818 221.89009627 -205.2109375 225.265625 C-212.48174076 229.73949404 -219.73139769 234.1778827 -227.265625 238.19921875 C-232.90292971 241.22967735 -238.44057374 244.42862365 -243.96875 247.65234375 C-245.48082031 248.51859375 -245.48082031 248.51859375 -247.0234375 249.40234375 C-257.28184789 255.54033999 -265.21893593 264.11445429 -268.96875 275.65234375 C-269.7660008 280.38029179 -270.09683192 284.92257124 -270.1074152 289.71377468 C-270.11025742 290.39213594 -270.11309964 291.07049721 -270.11602798 291.76941487 C-270.12432771 294.03488261 -270.12563946 296.3002989 -270.12696838 298.56578064 C-270.13153695 300.20936899 -270.13653741 301.85295619 -270.14193195 303.49654204 C-270.15548884 308.00714887 -270.16292432 312.51774817 -270.16935861 317.02837002 C-270.17737332 321.8946954 -270.19106741 326.76100519 -270.20407104 331.62731934 C-270.2258186 340.05661976 -270.24396938 348.48592176 -270.25967598 356.91523552 C-270.28239027 369.10260286 -270.31053095 381.28995293 -270.33999526 393.4773056 C-270.38765203 413.25056915 -270.43092141 433.02383976 -270.47143555 452.79711914 C-270.51080021 472.00480703 -270.55222877 491.21248864 -270.59643555 510.42016602 C-270.59915982 511.6041642 -270.60188409 512.78816238 -270.60469092 514.00803929 C-270.61837056 519.94782121 -270.6320908 525.88760304 -270.64583123 531.82738483 C-270.75976593 581.10235803 -270.86658194 630.37734484 -270.96875 679.65234375 C-273.96875 680.65234375 -273.96875 680.65234375 -275.84716797 679.88305664 C-276.54471191 679.46789795 -277.24225586 679.05273926 -277.9609375 678.625 C-278.74210937 678.16633545 -279.52328125 677.7076709 -280.328125 677.23510742 C-281.15828125 676.73342041 -281.9884375 676.2317334 -282.84375 675.71484375 C-283.69710937 675.20993408 -284.55046875 674.70502441 -285.4296875 674.18481445 C-291.35350488 670.66699029 -297.21549272 667.05151568 -303.06640625 663.4140625 C-306.68055597 661.22027848 -310.37368717 659.20684048 -314.09765625 657.20703125 C-323.21579893 652.269588 -332.09342142 646.98568055 -340.8984375 641.51171875 C-343.655245 639.84220174 -346.43593793 638.28918121 -349.28125 636.77734375 C-366.08258563 627.6982079 -378.62470134 619.68448973 -384.96875 600.65234375 C-385.06604163 598.50672424 -385.10152262 596.3581481 -385.10576439 594.2103281 C-385.10841622 593.55030762 -385.11106804 592.89028713 -385.11380023 592.21026602 C-385.12150275 589.98298236 -385.12205277 587.75575375 -385.12265015 585.52845764 C-385.12666417 583.92162276 -385.13110229 582.3147889 -385.1359297 580.70795625 C-385.14790822 576.27988704 -385.15354664 571.85182872 -385.15811086 567.42374647 C-385.16406226 562.65255668 -385.17567341 557.88137996 -385.18640137 553.11019897 C-385.21093827 541.5799635 -385.2255556 530.04972369 -385.23846143 518.51947013 C-385.24217281 515.2628923 -385.2461461 512.0063149 -385.2502141 508.7497375 C-385.27545302 488.52899172 -385.2975073 468.30824528 -385.30994225 448.08748722 C-385.31287198 443.40231893 -385.31583363 438.71715066 -385.31884766 434.03198242 C-385.31959371 432.86749628 -385.32033976 431.70301013 -385.32110842 430.50323652 C-385.33375804 411.64539694 -385.3669748 392.78765173 -385.40864949 373.92985625 C-385.45108224 354.57033025 -385.47463895 335.21085253 -385.47986281 315.85128015 C-385.48327569 304.9811272 -385.49501626 294.11112165 -385.52796555 283.24101448 C-385.55598578 273.98177426 -385.56695675 264.72271164 -385.55577008 255.46343232 C-385.55058826 250.74088648 -385.55343921 246.01871245 -385.57823563 241.29622078 C-385.60077487 236.96736456 -385.59995219 232.63914622 -385.58103175 228.31027847 C-385.57823825 226.7495909 -385.58379402 225.18885964 -385.59884469 223.62824214 C-385.70609215 211.77686241 -384.07317241 200.99914426 -375.46875 192.15234375 C-374.7365625 191.37890625 -374.004375 190.60546875 -373.25 189.80859375 C-367.87351098 184.72670687 -361.96186724 181.16519965 -355.59375 177.46484375 C-353.61040184 176.30385549 -351.62732975 175.1423955 -349.64453125 173.98046875 C-348.67596191 173.41392578 -347.70739258 172.84738281 -346.70947266 172.26367188 C-343.04814489 170.11110077 -339.41365071 167.91573044 -335.78125 165.71484375 C-330.78920761 162.69716555 -325.72011686 159.86683311 -320.578125 157.11328125 C-316.84978531 155.02585753 -313.29673732 152.68830721 -309.7109375 150.3671875 C-306.17681798 148.15710421 -302.52668536 146.21320666 -298.8515625 144.25 C-295.65829589 142.48028991 -292.56745457 140.58262426 -289.46875 138.65234375 C-284.65859447 135.66086893 -279.79332414 132.86764146 -274.8046875 130.1875 C-258.22594905 121.21305894 -242.0970537 111.36594073 -225.96606445 101.61791992 C-221.57301269 98.97815167 -217.09510472 96.53213725 -212.578125 94.11328125 C-208.84978531 92.02585753 -205.29673732 89.68830721 -201.7109375 87.3671875 C-198.17681798 85.15710421 -194.52668536 83.21320666 -190.8515625 81.25 C-187.65829589 79.48028991 -184.56745457 77.58262426 -181.46875 75.65234375 C-176.66109372 72.66242324 -171.79831599 69.87056599 -166.8125 67.19140625 C-156.90183623 61.82766789 -147.24114011 56.04269552 -137.58886719 50.23168945 C-132.00070652 46.86805068 -126.40124791 43.52503706 -120.78125 40.21484375 C-120.12342529 39.82635254 -119.46560059 39.43786133 -118.7878418 39.03759766 C-115.39623794 37.0438526 -111.98300014 35.10200381 -108.53515625 33.20703125 C-103.96608908 30.68092772 -99.52919324 27.96696194 -95.09375 25.21484375 C-89.36071196 21.68424586 -83.60592184 18.27237123 -77.6640625 15.1015625 C-74.44780078 13.37223917 -71.26677144 11.58432915 -68.09375 9.77734375 C-67.50247314 9.44154297 -66.91119629 9.10574219 -66.30200195 8.75976562 C-62.25796999 6.44353294 -58.33140646 3.9790272 -54.40625 1.46484375 C-36.17563548 -9.67120632 -18.61642831 -11.19392995 0 0 Z " fill="#9266D8" transform="translate(600.96875,181.34765625)"/>
<path d="M0 0 C0.64757625 1.43671568 1.29299453 2.87440416 1.9375 4.3125 C2.29714844 5.11300781 2.65679688 5.91351563 3.02734375 6.73828125 C4.79347626 10.8450713 5.1281732 13.95635579 5.13701439 18.40798759 C5.13966622 19.06433174 5.14231804 19.72067588 5.14505023 20.39690924 C5.15275249 22.61169686 5.15330276 24.82642912 5.15390015 27.04122925 C5.15791419 28.63910184 5.16235232 30.23697341 5.1671797 31.83484375 C5.17915808 36.23817921 5.18479661 40.6415037 5.18936086 45.04485226 C5.19531236 49.7894761 5.20692354 54.5340868 5.21765137 59.27870178 C5.2421888 70.74516743 5.25680607 82.21163744 5.26971143 93.67812127 C5.2734229 96.91694348 5.27739618 100.15576526 5.2814641 103.39458704 C5.30670412 123.50663419 5.32875763 143.61868201 5.34119225 163.7307415 C5.34412196 168.39080686 5.34708362 173.0508722 5.35009766 177.7109375 C5.35084371 178.86918011 5.35158976 180.02742271 5.35235842 181.22076358 C5.36500607 199.97446345 5.39822005 218.72806838 5.43989949 237.48172389 C5.48234092 256.73616357 5.50588999 275.99055468 5.51111281 295.24504101 C5.51452481 306.05542247 5.52625485 316.86565567 5.55921555 327.67599106 C5.58724776 336.88506396 5.59820153 346.09395822 5.58702008 355.30307047 C5.58184124 359.99941257 5.58466975 364.69538078 5.60948563 369.39166832 C5.63204892 373.69775593 5.6311837 378.00320261 5.61228175 382.30930199 C5.60949159 383.8605862 5.6150252 385.41191454 5.63009469 386.96312808 C5.74413899 399.47560028 3.55210493 410.9515471 -4.70703125 420.796875 C-10.84122453 426.69071658 -18.05223189 431.94816094 -26 435 C-27.73125896 436.04630604 -29.43877706 437.13256271 -31.125 438.25 C-35.70886793 441.22000278 -40.37228617 443.89248134 -45.18359375 446.47265625 C-52.13510422 450.24247677 -58.92010624 454.27281754 -65.5625 458.5625 C-70.89812629 461.99419058 -76.40387178 465.01818242 -82 468 C-86.91635536 470.64149941 -91.68537713 473.40850846 -96.375 476.4375 C-99.91388688 478.7184423 -103.46892737 480.83892472 -107.1875 482.8125 C-111.92923384 485.34278143 -116.46231905 488.12666612 -121 491 C-126.214098 494.29649149 -131.45494305 497.41605565 -136.90234375 500.31640625 C-147.83880509 506.26043505 -158.52244897 512.66148217 -169.08984375 519.234375 C-172.74113629 521.44965584 -176.47458314 523.47963067 -180.23828125 525.49609375 C-184.23632764 527.67324773 -188.15484003 529.9806103 -192.078125 532.2890625 C-196.37687592 534.80624552 -200.70556468 537.26886837 -205.04296875 539.71875 C-217.88100298 546.99097808 -230.530829 554.58746159 -243.0625 562.375 C-247.67407191 565.22642996 -252.35302279 567.88061456 -257.12890625 570.4453125 C-266.24704893 575.38275575 -275.12467142 580.6666632 -283.9296875 586.140625 C-286.686495 587.81014201 -289.46718793 589.36316254 -292.3125 590.875 C-297.01075279 593.38530733 -301.50189898 596.15309397 -306 599 C-311.34194541 602.3759947 -316.70256514 605.61460019 -322.296875 608.5625 C-324.26480866 609.6090312 -326.21014479 610.69839202 -328.140625 611.8125 C-339.62886227 618.34609465 -350.87023502 621.9648691 -364 619.0625 C-377.29498106 615.13571235 -390.14330631 606.70579395 -401.5 598.9375 C-405.41753363 596.28189756 -409.47811016 594.20085552 -413.734375 592.14453125 C-416.66045507 590.66635632 -419.28206567 588.83044557 -422 587 C-423.78417992 586.00725692 -425.57672376 585.02947433 -427.375 584.0625 C-431.33350575 581.93305991 -435.17936282 579.71426533 -438.953125 577.2734375 C-441.27278138 575.8302925 -443.63949372 574.47822573 -446.01464844 573.12890625 C-456.36834986 567.24160726 -466.65822574 561.2467391 -476.84204102 555.0703125 C-481.25841968 552.40564134 -485.74959393 549.93313482 -490.33984375 547.58203125 C-491.21769531 547.05996094 -492.09554688 546.53789063 -493 546 C-493.65269112 545.66117735 -494.30538223 545.3223547 -494.97785187 544.97326469 C-498.39928552 542.90359913 -500.62473088 541.34530793 -501.72753906 537.39183426 C-501.98686354 534.06237574 -501.98926457 530.8158544 -501.90820312 527.47705078 C-501.90937134 526.21796402 -501.91053955 524.95887726 -501.91174316 523.66163635 C-501.91403249 520.2210968 -501.86710797 516.78280245 -501.8111515 513.34278345 C-501.76103405 509.74344015 -501.75643344 506.14404146 -501.74694824 502.54440308 C-501.7221138 495.73361752 -501.65650861 488.9238631 -501.57615232 482.11353099 C-501.48663544 474.35794183 -501.44272305 466.60230259 -501.40258884 458.84632516 C-501.31903788 442.89695357 -501.17838678 426.94860991 -501 411 C-498 410 -498 410 -494.77734375 411.44140625 C-493.49135133 412.13738279 -492.21169566 412.84515401 -490.9375 413.5625 C-489.92985596 414.11623291 -489.92985596 414.11623291 -488.90185547 414.68115234 C-481.92243809 418.54114629 -475.08302425 422.55530744 -468.5 427.0625 C-464.58246637 429.71810244 -460.52188984 431.79914448 -456.265625 433.85546875 C-453.33954493 435.33364368 -450.71793433 437.16955443 -448 439 C-445.39391845 440.46344883 -442.76326127 441.8777228 -440.1328125 443.296875 C-431.94339257 447.7489786 -423.88102293 452.31388247 -416.18359375 457.58203125 C-412.92399431 459.69872999 -409.50047554 461.47838964 -406.07421875 463.30859375 C-402.5561114 465.24422333 -399.1220209 467.29587487 -395.6875 469.375 C-388.51870097 473.69837097 -381.35214714 477.99384848 -374 482 C-373.20980469 482.45761719 -372.41960937 482.91523437 -371.60546875 483.38671875 C-362.56773535 487.8976715 -350.16968462 487.50768194 -340.53125 485.15234375 C-337.52979519 483.96225078 -334.80949533 482.59064197 -332 481 C-330.82719762 480.36519266 -329.65399956 479.73111596 -328.48046875 479.09765625 C-322.51540746 475.81969562 -316.78852695 472.24933535 -311.16796875 468.41015625 C-307.98901651 466.34240534 -304.65787526 464.59783654 -301.31640625 462.80859375 C-289.32278259 456.26790146 -277.62071701 449.19578603 -265.92895508 442.13476562 C-261.74864644 439.6185834 -257.55985331 437.16541606 -253.25 434.875 C-248.69572339 432.45464545 -244.35602657 429.75516281 -240 427 C-233.7907179 423.07444989 -227.50265467 419.42348536 -221 416 C-215.69360835 413.18768643 -210.46286379 410.3909959 -205.5 407 C-201.46347939 404.24230627 -197.2831813 401.91300968 -192.9765625 399.60546875 C-182.52294315 393.96709926 -172.33419599 387.84989833 -162.12060547 381.79223633 C-156.87822582 378.68673065 -151.6176718 375.62180886 -146.3125 372.625 C-124.07306669 360.10387841 -124.07306669 360.10387841 -111 339 C-109.86097792 333.65717048 -109.82831413 328.42815041 -109.79467773 322.99194336 C-109.78477814 321.99711441 -109.77487854 321.00228546 -109.76467896 319.97731018 C-109.73307298 316.68151206 -109.70825344 313.3857006 -109.68359375 310.08984375 C-109.66296776 307.76566751 -109.64197006 305.44149454 -109.62062073 303.11732483 C-109.57663746 298.2239882 -109.53575747 293.3306391 -109.49731445 288.43725586 C-109.44890965 282.28074534 -109.39515791 276.12429808 -109.33935165 269.96785069 C-108.96062559 228.07609943 -108.93225808 186.20131043 -109.28753948 144.30927753 C-109.3380345 138.35017032 -109.38454991 132.3910904 -109.421875 126.43188477 C-109.45874337 120.55363451 -109.50501313 114.67552913 -109.55806351 108.79740334 C-109.57648095 106.58512662 -109.59163464 104.37282006 -109.60334396 102.16049767 C-109.6202405 99.09341719 -109.64925385 96.02667291 -109.68115234 92.9597168 C-109.68331253 92.06478012 -109.68547272 91.16984344 -109.68769836 90.24778748 C-109.77262085 83.85006357 -110.96017393 78.4394247 -112.8125 72.3125 C-113.07725286 69.04721469 -112.0106317 67.51328963 -110 65 C-109.01 65 -108.02 65 -107 65 C-107 64.34 -107 63.68 -107 63 C-104.29774382 61.11660933 -101.60387198 59.83434646 -98.5625 58.5625 C-95.04940283 57.02166791 -92.17208791 55.13771141 -89 53 C-87.33469021 52.32995111 -85.66783779 51.66373137 -84 51 C-82.06849488 50.0289701 -80.15179672 49.02799823 -78.25 48 C-77.28578125 47.484375 -76.3215625 46.96875 -75.328125 46.4375 C-72.88683966 45.21208835 -72.88683966 45.21208835 -72 43 C-70.44527156 42.15353674 -68.85547624 41.37073896 -67.25 40.625 C-63.38084974 38.75336013 -60.32645889 36.72940217 -57 34 C-54.8169979 32.73411713 -52.59894052 31.54337313 -50.37890625 30.34375 C-48.06323964 29.03572157 -45.88364129 27.62363725 -43.6875 26.125 C-40.20637298 23.75564653 -36.64995904 21.60022992 -33 19.5 C-28.51027822 16.91483536 -24.1735884 14.19422835 -19.8984375 11.26953125 C-18 10 -18 10 -15.1875 8.4375 C-12.81565943 7.04638284 -12.81565943 7.04638284 -11 4.4375 C-7.74356307 0.46871749 -5.0331499 0 0 0 Z " fill="#7C41D8" transform="translate(929,380)"/>
<path d="M0 0 C0.98613281 -0.02449219 1.97226562 -0.04898437 2.98828125 -0.07421875 C13.06429061 -0.11404487 20.29663863 3.13558556 28.44140625 8.82421875 C30.77670238 10.39293713 33.14459183 11.73630333 35.625 13.0625 C46.53565453 18.90092609 57.24147349 25.15415595 67.75 31.6875 C72.38722798 34.57041727 77.08977357 37.24754761 81.8984375 39.83203125 C91.54931046 45.05407895 100.93440208 50.67442768 110.26757812 56.43920898 C114.38698053 58.97221642 118.52641802 61.37990944 122.8125 63.625 C135.05828491 70.27217683 142.76045091 79.22823553 147.11699295 92.66091919 C148.36648408 98.01823695 148.16490952 103.44744888 148.13818359 108.921875 C148.1422564 110.26819279 148.14760224 111.61450723 148.15411377 112.96081543 C148.16770909 116.59308683 148.16252125 120.2251006 148.15297651 123.8573761 C148.14533927 127.6728277 148.15243675 131.4882584 148.15713501 135.30371094 C148.16258079 141.70902433 148.15543198 148.11423368 148.14111328 154.51953125 C148.12478899 161.90694899 148.13007833 169.29411827 148.1465925 176.68153 C148.16024105 183.04360443 148.16211062 189.4056044 148.15427649 195.76768875 C148.14961843 199.55899371 148.14892335 203.35018219 148.15888596 207.14147949 C148.16760263 210.70719434 148.1614489 214.2725913 148.14420319 217.83827209 C148.13839567 219.75802178 148.14721362 221.67779859 148.15658569 223.59753418 C148.10679787 230.42771282 147.4381754 236.07800885 144.75 242.375 C144.47069326 243.06466858 144.19138653 243.75433716 143.90361595 244.46490479 C138.12956244 258.16628557 125.28639068 265.00421919 112.84375 271.63671875 C108.31747387 274.17989158 103.94945704 276.96512803 99.58325195 279.77270508 C95.68413813 282.25672685 91.74289495 284.42228716 87.5871582 286.44580078 C85.08560544 287.71103797 82.77305363 289.20265032 80.4375 290.75 C76.95683407 293.00247455 73.47330849 295.11733687 69.8125 297.0625 C64.34344929 299.98195009 59.05325659 303.16807348 53.75 306.375 C47.70178125 310.02879683 41.64887453 313.61545667 35.41015625 316.9375 C31.40287352 319.10296262 27.4624645 321.38357832 23.51806641 323.66113281 C13.68961229 329.31848689 5.20214123 331.17441895 -6.25 330.375 C-6.58 330.045 -6.91 329.715 -7.25 329.375 C-8.219375 329.2925 -9.18875 329.21 -10.1875 329.125 C-19.28492321 327.87525297 -27.3579492 321.5768271 -35.05859375 316.8984375 C-39.58440127 314.15768363 -44.16470049 311.51463047 -48.75 308.875 C-55.12942363 305.19975874 -61.46265972 301.46008077 -67.76000977 297.64624023 C-72.83728511 294.58705741 -78.00356096 291.70346057 -83.18676758 288.82861328 C-88.7992267 285.68847966 -94.22387903 282.28756009 -99.6496582 278.83764648 C-104.05038874 276.06190228 -108.51295732 273.62384334 -113.21484375 271.38671875 C-116.0695304 269.96759429 -118.62787561 268.18135236 -121.25 266.375 C-122.3225 265.818125 -123.395 265.26125 -124.5 264.6875 C-131.5940179 260.69020261 -138.36726478 254.54312655 -142.25 247.375 C-142.58456113 246.79446208 -142.91912226 246.21392416 -143.2638216 245.61579418 C-146.8937765 238.59696606 -146.83744975 231.8343054 -146.81518555 224.08129883 C-146.82553541 222.65441663 -146.8375289 221.22754557 -146.85102844 219.8006897 C-146.88192236 215.94701109 -146.88735624 212.09370749 -146.88609672 208.2399199 C-146.88693115 205.00982641 -146.89920279 201.77981261 -146.91104633 198.54974383 C-146.93836815 190.91974842 -146.94376462 183.28994609 -146.9362793 175.65991211 C-146.92904858 167.82129144 -146.96241047 159.98357238 -147.01533669 152.14514714 C-147.05929396 145.38806528 -147.07581765 138.63127277 -147.0713008 131.87405032 C-147.06899213 127.85038906 -147.07702671 123.82745613 -147.11237144 119.8039341 C-147.14462695 116.01376423 -147.14228855 112.2250725 -147.11492729 108.4348793 C-147.1084401 106.40509971 -147.13612167 104.37529754 -147.16537476 102.34571838 C-147.01969669 90.58879812 -143.07836782 81.30988684 -135.1875 72.5 C-130.1644496 67.9137366 -124.40159539 64.79562692 -118.45507812 61.59130859 C-114.01528127 59.14234181 -109.6716487 56.52637187 -105.3125 53.9375 C-104.36648926 53.37772461 -103.42047852 52.81794922 -102.44580078 52.24121094 C-96.31459794 48.61096309 -90.203643 44.94819308 -84.10229492 41.26806641 C-80.29656492 38.98024725 -76.44496436 36.80458584 -72.546875 34.6796875 C-69.60655785 33.00950735 -66.74628214 31.22362621 -63.875 29.4375 C-59.01907194 26.42366994 -54.10020194 23.63208476 -49.0625 20.9375 C-45.8945732 19.17754067 -42.82629786 17.29043074 -39.75 15.375 C-34.81498582 12.30236617 -29.819203 9.42934733 -24.6875 6.69921875 C-23.03095686 5.79926983 -21.40539804 4.84035613 -19.8125 3.83203125 C-13.30930413 0.13432994 -7.31250825 0.00941121 0 0 Z " fill="#9266D8" transform="translate(574.25,421.625)"/>
<path d="M0 0 C3.465 1.98 3.465 1.98 7 4 C7 4.66 7 5.32 7 6 C7.5775 6.103125 8.155 6.20625 8.75 6.3125 C11 7 11 7 12.66015625 8.32421875 C16.37867396 10.98739754 20.58425415 12.59888999 24.77539062 14.39453125 C26.55244068 15.18782596 28.28103818 16.08764391 30 17 C30.495 18.485 30.495 18.485 31 20 C33.11114996 21.58190229 33.11114996 21.58190229 35.6875 23 C36.58597656 23.51820313 37.48445313 24.03640625 38.41015625 24.5703125 C41.24091832 26.13299563 44.07819762 27.61598835 47 29 C47 29.66 47 30.32 47 31 C47.99 31 48.98 31 50 31 C50.495 31.99 50.495 31.99 51 33 C52.97522846 34.04808041 54.97481509 35.0520411 57 36 C57 36.66 57 37.32 57 38 C57.8971875 38.185625 57.8971875 38.185625 58.8125 38.375 C61 39 61 39 64 41 C64 41.66 64 42.32 64 43 C64.70125 43.0825 65.4025 43.165 66.125 43.25 C69.67498987 44.17608431 72.03265554 45.87125289 75 48 C77.31856917 49.54571278 79.50638429 50.79618552 82 52 C82 52.66 82 53.32 82 54 C82.56460938 54.11601562 83.12921875 54.23203125 83.7109375 54.3515625 C86.25121562 55.07116347 88.31477666 56.10012759 90.625 57.375 C91.40101563 57.79523438 92.17703125 58.21546875 92.9765625 58.6484375 C95 60 95 60 97 63 C98.485 63.495 98.485 63.495 100 64 C100 64.66 100 65.32 100 66 C100.66 66.103125 101.32 66.20625 102 66.3125 C105.83841009 67.19213564 109.33096691 68.56969896 113 70 C112.47423921 72.22978906 111.91274782 74.20177066 111 76.3125 C108.98541165 81.72670618 108.87397909 87.3371812 108.8613348 93.06143093 C108.85849258 93.73979219 108.85565036 94.41815346 108.85272202 95.11707112 C108.84442229 97.38253886 108.84311054 99.64795515 108.84178162 101.91343689 C108.83721305 103.55702524 108.83221259 105.20061244 108.82681805 106.84419829 C108.81326116 111.35480512 108.80582568 115.86540442 108.79939139 120.37602627 C108.79137668 125.24235165 108.77768259 130.10866144 108.76467896 134.97497559 C108.7429314 143.40427601 108.72478062 151.83357801 108.70907402 160.26289177 C108.68635973 172.45025911 108.65821905 184.63760918 108.62875474 196.82496185 C108.58109797 216.5982254 108.53782859 236.37149601 108.49731445 256.14477539 C108.45794979 275.35246328 108.41652123 294.56014489 108.37231445 313.76782227 C108.36959018 314.95182045 108.36686591 316.13581863 108.36405908 317.35569554 C108.35037944 323.29547746 108.3366592 329.23525929 108.32291877 335.17504108 C108.20898407 384.45001428 108.10216806 433.72500109 108 483 C105 484 105 484 103.12158203 483.23071289 C102.42403809 482.8155542 101.72649414 482.40039551 101.0078125 481.97265625 C100.22664063 481.5139917 99.44546875 481.05532715 98.640625 480.58276367 C97.81046875 480.08107666 96.9803125 479.57938965 96.125 479.0625 C95.27164063 478.55759033 94.41828125 478.05268066 93.5390625 477.5324707 C87.61524512 474.01464654 81.75325728 470.39917193 75.90234375 466.76171875 C72.28819403 464.56793473 68.59506283 462.55449673 64.87109375 460.5546875 C55.75295107 455.61724425 46.87532858 450.3333368 38.0703125 444.859375 C35.313505 443.18985799 32.53281207 441.63683746 29.6875 440.125 C12.88616437 431.04586415 0.34404866 423.03214598 -6 404 C-6.09729163 401.85438049 -6.13277262 399.70580435 -6.13701439 397.55798435 C-6.13966622 396.89796387 -6.14231804 396.23794338 -6.14505023 395.55792227 C-6.15275275 393.33063861 -6.15330277 391.10341 -6.15390015 388.87611389 C-6.15791417 387.26927901 -6.16235229 385.66244515 -6.1671797 384.0556125 C-6.17915822 379.62754329 -6.18479664 375.19948497 -6.18936086 370.77140272 C-6.19531226 366.00021293 -6.20692341 361.22903621 -6.21765137 356.45785522 C-6.24218827 344.92761975 -6.2568056 333.39737994 -6.26971143 321.86712638 C-6.27342281 318.61054855 -6.2773961 315.35397115 -6.2814641 312.09739375 C-6.30670302 291.87664797 -6.3287573 271.65590153 -6.34119225 251.43514347 C-6.34412198 246.74997518 -6.34708363 242.06480691 -6.35009766 237.37963867 C-6.35084371 236.21515253 -6.35158976 235.05066638 -6.35235842 233.85089277 C-6.36500804 214.99305319 -6.3982248 196.13530798 -6.43989949 177.2775125 C-6.48233224 157.9179865 -6.50588895 138.55850878 -6.51111281 119.1989364 C-6.51452569 108.32878345 -6.52626626 97.4587779 -6.55921555 86.58867073 C-6.58723578 77.32943051 -6.59820675 68.07036789 -6.58702008 58.81108857 C-6.58183826 54.08854273 -6.58468921 49.3663687 -6.60948563 44.64387703 C-6.63202487 40.31502081 -6.63120219 35.98680247 -6.61228175 31.65793472 C-6.60948825 30.09724715 -6.61504402 28.53651589 -6.63009469 26.97589839 C-6.71667991 17.40779949 -5.64606728 9.54050958 -1 1 C-0.67 0.67 -0.34 0.34 0 0 Z " fill="#631BD6" transform="translate(222,378)"/>
<path d="M0 0 C3.60591321 -0.47446226 5.89782379 0.16167336 9 2 C9 2.99 9 3.98 9 5 C9.99 5 10.98 5 12 5 C12 5.66 12 6.32 12 7 C12.85851562 7.19916016 12.85851562 7.19916016 13.734375 7.40234375 C15.97650875 7.99380317 18.08579619 8.73288854 20.25 9.5625 C20.95640625 9.83191406 21.6628125 10.10132813 22.390625 10.37890625 C22.92171875 10.58386719 23.4528125 10.78882813 24 11 C24 11.66 24 12.32 24 13 C24.99 13 25.98 13 27 13 C27.515625 13.70125 28.03125 14.4025 28.5625 15.125 C32.56186196 19.84219616 38.14208126 23.04736042 44 25 C44 25.66 44 26.32 44 27 C44.51820313 27.25007812 45.03640625 27.50015625 45.5703125 27.7578125 C48.7252661 29.37079521 51.79886409 31.11814106 54.875 32.875 C55.47441406 33.21402344 56.07382812 33.55304687 56.69140625 33.90234375 C60.57387764 36.11728947 64.2916468 38.50015086 68 41 C70.22193677 42.40731365 72.45120007 43.80312385 74.6875 45.1875 C75.80511719 45.88230469 76.92273438 46.57710937 78.07421875 47.29296875 C80.91964208 49.08707203 80.91964208 49.08707203 84 50 C84 50.99 84 51.98 84 53 C84.598125 53.144375 85.19625 53.28875 85.8125 53.4375 C87.56150404 53.8872439 89.28677023 54.42892341 91 55 C91 55.66 91 56.32 91 57 C91.515625 57.0825 92.03125 57.165 92.5625 57.25 C96.00897786 58.31045473 98.94560904 60.12795393 102 62 C102.58910156 62.35707031 103.17820312 62.71414063 103.78515625 63.08203125 C105.23015666 63.99412371 106.62096042 64.99094665 108 66 C108 66.66 108 67.32 108 68 C108.515625 68.0825 109.03125 68.165 109.5625 68.25 C113.04455732 69.32140225 115.87200885 71.13523605 119 73 C119 73.66 119 74.32 119 75 C120.65 75.33 122.3 75.66 124 76 C124 76.66 124 77.32 124 78 C124.66 78 125.32 78 126 78 C126 78.66 126 79.32 126 80 C127.32 80 128.64 80 130 80 C130 80.66 130 81.32 130 82 C131.65 82.33 133.3 82.66 135 83 C138.3 84.65 141.6 86.3 145 88 C145 138.16 145 188.32 145 240 C130.07101245 241.86612344 121.51477339 236.01027998 109.19140625 228.5234375 C104.66559873 225.78268363 100.08529951 223.13963047 95.5 220.5 C89.12057637 216.82475874 82.78734028 213.08508077 76.48999023 209.27124023 C71.41271489 206.21205741 66.24643904 203.32846057 61.06323242 200.45361328 C55.4507733 197.31347966 50.02612097 193.91256009 44.6003418 190.46264648 C40.19961126 187.68690228 35.73704268 185.24884334 31.03515625 183.01171875 C28.1804696 181.59259429 25.62212439 179.80635236 23 178 C21.9275 177.443125 20.855 176.88625 19.75 176.3125 C12.6559821 172.31520261 5.88273522 166.16812655 2 159 C1.66451834 158.42148726 1.32903667 157.84297451 0.9833889 157.24693108 C-2.68976822 150.1758045 -2.55364838 143.34209791 -2.48583984 135.53173828 C-2.48798926 134.08701738 -2.49187222 132.64229819 -2.49734497 131.19758606 C-2.50698291 127.29910872 -2.491809 123.40109408 -2.47143888 119.50267267 C-2.45379594 115.4161655 -2.45739425 111.32967105 -2.4581604 107.24313354 C-2.45629182 100.3888988 -2.4389812 93.53484199 -2.41162109 86.68066406 C-2.38009969 78.75466713 -2.36962773 70.82886435 -2.3710922 62.90280926 C-2.37244199 54.45665856 -2.3585746 46.0105827 -2.34019899 37.56445456 C-2.33593538 35.13160131 -2.33451656 32.69876012 -2.33372116 30.26590347 C-2.3317148 26.44909479 -2.31952602 22.63244956 -2.29938889 18.81569481 C-2.29354046 17.41403262 -2.29108784 16.01235163 -2.29224396 14.61067772 C-2.29322335 12.70073078 -2.28069217 10.79079101 -2.26742554 8.88088989 C-2.26407385 7.81131609 -2.26072216 6.74174229 -2.25726891 5.63975716 C-2 3 -2 3 0 0 Z " fill="#631BD6" transform="translate(430,510)"/>
<path d="M0 0 C0.33 0.66 0.66 1.32 1 2 C1.66 2 2.32 2 3 2 C4.9819142 5.31683489 5.25283568 7.82158386 5.26069641 11.6594696 C5.26778122 12.81311508 5.27486603 13.96676056 5.28216553 15.15536499 C5.27968811 16.4172464 5.27721069 17.67912781 5.2746582 18.97924805 C5.27900667 20.32482689 5.28419027 21.67040326 5.29014587 23.01597595 C5.30353771 26.66914734 5.30411398 30.32221526 5.30158257 33.97540641 C5.30051224 37.02923565 5.3053982 40.08304401 5.310188 43.13686877 C5.32128541 50.34703974 5.32172033 57.55715861 5.31567383 64.76733398 C5.30964314 72.19155911 5.32192139 79.61559428 5.3432439 87.03978699 C5.36089881 93.4229826 5.36685484 99.80611797 5.36360615 106.18933707 C5.36179816 109.99749494 5.36438017 113.80551753 5.37832069 117.61365318 C5.39095665 121.19980324 5.38890096 124.78565931 5.37590981 128.37180519 C5.37244059 130.30354209 5.38368155 132.23528819 5.39547729 134.16699219 C5.35431954 141.01894558 4.70202513 146.68436981 2 153 C1.72067281 153.6895663 1.44134562 154.3791326 1.15355396 155.08959484 C-4.61919566 168.7912704 -17.46409173 175.62947634 -29.90625 182.26171875 C-34.43252613 184.80489158 -38.80054296 187.59012803 -43.16674805 190.39770508 C-47.06586187 192.88172685 -51.00710505 195.04728716 -55.1628418 197.07080078 C-57.66439456 198.33603797 -59.97694637 199.82765032 -62.3125 201.375 C-65.79316593 203.62747455 -69.27669151 205.74233687 -72.9375 207.6875 C-78.40655071 210.60695009 -83.69674341 213.79307348 -89 217 C-95.04821875 220.65379683 -101.10112547 224.24045667 -107.33984375 227.5625 C-111.34712648 229.72796262 -115.2875355 232.00857832 -119.23193359 234.28613281 C-129.28137279 240.07068806 -137.37302235 241.35412115 -149 241 C-149 240.34 -149 239.68 -149 239 C-146.69 239 -144.38 239 -142 239 C-142 189.17 -142 139.34 -142 88 C-140.02 87.505 -140.02 87.505 -138 87 C-137.505 86.01 -137.505 86.01 -137 85 C-136.01 85 -135.02 85 -134 85 C-134 84.34 -134 83.68 -134 83 C-132.68 83 -131.36 83 -130 83 C-130 82.34 -130 81.68 -130 81 C-128.68 81 -127.36 81 -126 81 C-126 80.34 -126 79.68 -126 79 C-125.030625 78.54625 -124.06125 78.0925 -123.0625 77.625 C-119.92920418 76.34213779 -119.92920418 76.34213779 -119 74 C-117.02111039 73.27306096 -115.02045442 72.60183749 -113 72 C-113 71.01 -113 70.02 -113 69 C-111.35546875 67.61328125 -111.35546875 67.61328125 -109.1875 66.3125 C-108.47980469 65.87550781 -107.77210938 65.43851563 -107.04296875 64.98828125 C-105 64 -105 64 -102 64 C-102 63.34 -102 62.68 -102 62 C-101.01 62 -100.02 62 -99 62 C-99 61.34 -99 60.68 -99 60 C-97.68 60 -96.36 60 -95 60 C-94.67 59.01 -94.34 58.02 -94 57 C-93.34 57 -92.68 57 -92 57 C-92 56.34 -92 55.68 -92 55 C-90.68 55 -89.36 55 -88 55 C-88 54.34 -88 53.68 -88 53 C-85 51 -85 51 -81 51 C-81 50.01 -81 49.02 -81 48 C-77.21292538 45.63307836 -73.99681274 43.85352848 -69.625 42.875 C-68.42875 42.58625 -67.2325 42.2975 -66 42 C-65.505 41.01 -65.505 41.01 -65 40 C-63.02111039 39.27306096 -61.02045442 38.60183749 -59 38 C-59 37.34 -59 36.68 -59 36 C-58.27039063 35.73703125 -57.54078125 35.4740625 -56.7890625 35.203125 C-53.97082882 33.98741635 -51.83368867 32.57551466 -49.375 30.75 C-44.88630289 27.5197532 -40.26577037 24.87858166 -35.34765625 22.359375 C-33.14636108 21.08474818 -31.76351682 19.79323901 -30 18 C-28.27683653 17.2847246 -26.55283992 16.57119231 -24.8203125 15.87890625 C-21.84210768 14.44093182 -19.52669336 12.11417199 -17 10 C-14.91069966 8.87439908 -12.80244918 7.86395344 -10.63671875 6.89453125 C-8.81200195 6.09931912 -8.81200195 6.09931912 -8 4 C-6.15234375 2.9296875 -6.15234375 2.9296875 -3.9375 1.875 C-3.20402344 1.52179687 -2.47054687 1.16859375 -1.71484375 0.8046875 C-1.14894531 0.53914063 -0.58304688 0.27359375 0 0 Z " fill="#7C41D8" transform="translate(717,511)"/>
<path d="M0 0 C11.19290035 4.32221289 21.61965451 10.29679932 31.5 17.0625 C35.41753363 19.71810244 39.47811016 21.79914448 43.734375 23.85546875 C46.66045507 25.33364368 49.28206567 27.16955443 52 29 C54.60608155 30.46344883 57.23673873 31.8777228 59.8671875 33.296875 C68.05660743 37.7489786 76.11897707 42.31388247 83.81640625 47.58203125 C87.07600569 49.69872999 90.49952446 51.47838964 93.92578125 53.30859375 C97.4438886 55.24422333 100.8779791 57.29587487 104.3125 59.375 C123.43621121 71.39855226 123.43621121 71.39855226 145 77 C146.26949857 79.53899715 146.12301472 81.29483421 146.12025452 84.1378479 C146.12231651 85.7701107 146.12231651 85.7701107 146.12442017 87.43534851 C146.12082489 88.63440323 146.11722961 89.83345795 146.11352539 91.06884766 C146.11367142 92.32735031 146.11381744 93.58585297 146.1139679 94.88249207 C146.11425548 98.33888916 146.10836508 101.79525174 146.10139394 105.2516408 C146.09515387 108.8617997 146.09455608 112.47195934 146.09336853 116.0821228 C146.09025715 122.92088714 146.08204634 129.75963554 146.07201904 136.59839284 C146.06085193 144.38305311 146.05534594 152.16771414 146.05032361 159.95238042 C146.03986358 175.96826295 146.02226785 191.98412944 146 208 C129.04809647 210.27003814 112.11104879 198.24035596 98.5 188.9375 C94.58246637 186.28189756 90.52188984 184.20085552 86.265625 182.14453125 C83.33954493 180.66635632 80.71793433 178.83044557 78 177 C76.21582008 176.00725692 74.42327624 175.02947433 72.625 174.0625 C68.66649425 171.93305991 64.82063718 169.71426533 61.046875 167.2734375 C58.72721862 165.8302925 56.36050628 164.47822573 53.98535156 163.12890625 C43.63165014 157.24160726 33.34177426 151.2467391 23.15795898 145.0703125 C18.74158032 142.40564134 14.25040607 139.93313482 9.66015625 137.58203125 C8.34337891 136.79892578 8.34337891 136.79892578 7 136 C6.34749299 135.66099324 5.69498598 135.32198648 5.02270603 134.97270679 C1.60379035 132.90344719 -0.62318519 131.34409519 -1.73039436 127.39468956 C-1.99397886 124.06981707 -2.00071272 120.82758849 -1.92407227 117.49291992 C-1.92684677 116.23543945 -1.92962128 114.97795898 -1.93247986 113.68237305 C-1.93902847 110.24593229 -1.89621918 106.81170016 -1.84408307 103.37571502 C-1.79768643 99.77948485 -1.79602103 96.18322968 -1.78929138 92.58674622 C-1.77184367 86.55329013 -1.72551523 80.52064955 -1.65844727 74.48754883 C-1.56378357 65.96892373 -1.52048555 57.45060917 -1.48781502 48.93155134 C-1.43879792 36.90755971 -1.36561566 24.88355232 -1.24047852 12.86010742 C-1.23150543 11.6668837 -1.22253235 10.47365997 -1.21328735 9.24427795 C-1.20035141 8.16614838 -1.18741547 7.0880188 -1.17408752 5.97721863 C-1.16461877 5.03464297 -1.15515001 4.09206732 -1.14539433 3.12092876 C-1 1 -1 1 0 0 Z " fill="#631BD6" transform="translate(429,790)"/>
<path d="M0 0 C2.11007967 4.22015933 2.24900608 6.07635947 2.24609566 10.69228745 C2.24840335 11.36718718 2.25071103 12.04208691 2.25308865 12.73743814 C2.2584017 15.00928162 2.24939387 17.28084422 2.24050903 19.55267334 C2.24138083 21.19367198 2.24313134 22.83467035 2.24568737 24.47566724 C2.25016991 28.99309011 2.24214477 33.51041857 2.23213124 38.02782941 C2.22351209 42.89624359 2.22641581 47.76465224 2.22793579 52.6330719 C2.22898562 61.07062801 2.22269883 69.50815325 2.21146011 77.9457016 C2.19522128 90.14504806 2.18999876 102.34437956 2.18748413 114.54373565 C2.18310449 134.33531792 2.16978808 154.12688371 2.15087891 173.91845703 C2.13252708 193.1466463 2.11836716 212.37483109 2.10986328 231.60302734 C2.10933783 232.78781369 2.10881239 233.97260004 2.10827102 235.19328901 C2.10566098 241.13688273 2.10313356 247.08047649 2.10064721 253.02407026 C2.07990632 302.34939156 2.04467347 351.67469498 2 401 C0.68 401 -0.64 401 -2 401 C-2 400.34 -2 399.68 -2 399 C-1.34 399 -0.68 399 0 399 C0 267.33 0 135.66 0 0 Z " fill="#5F20C6" transform="translate(328,460)"/>
<path d="M0 0 C-5.46103021 3.95611165 -10.92065446 7.6303524 -16.859375 10.828125 C-20.33698606 12.73192667 -23.660161 14.86638234 -27 17 C-28.26650391 17.804375 -28.26650391 17.804375 -29.55859375 18.625 C-32.37403614 20.41410381 -35.18728727 22.20660824 -38 24 C-40.80422369 25.78797913 -43.60886534 27.5751643 -46.41796875 29.35546875 C-48.07332496 30.40978791 -49.72241595 31.47404815 -51.36328125 32.55078125 C-52.42095703 33.23720703 -52.42095703 33.23720703 -53.5 33.9375 C-54.1084375 34.33839844 -54.716875 34.73929687 -55.34375 35.15234375 C-57 36 -57 36 -60 36 C-60.33 36.99 -60.66 37.98 -61 39 C-63.3984375 40.60546875 -63.3984375 40.60546875 -66.375 42.1875 C-67.35210938 42.71730469 -68.32921875 43.24710937 -69.3359375 43.79296875 C-72 45 -72 45 -75 45 C-72.74852561 41.62278841 -71.18153449 40.83070944 -67.625 39 C-64.1656952 37.20973983 -61.1026656 35.34408436 -58 33 C-57.34 32.855625 -56.68 32.71125 -56 32.5625 C-53.83023011 32.13025195 -53.83023011 32.13025195 -52.19140625 30.16796875 C-49.91453684 27.91545088 -47.68197923 26.38923646 -44.9375 24.75 C-44.08027344 24.22921875 -43.22304688 23.7084375 -42.33984375 23.171875 C-40 22 -40 22 -37 22 C-36.505 20.515 -36.505 20.515 -36 19 C-33.85546875 17.4296875 -33.85546875 17.4296875 -31.1875 15.875 C-30.31480469 15.35679687 -29.44210937 14.83859375 -28.54296875 14.3046875 C-26.29917464 13.15349359 -24.42146336 12.58814537 -22 12 C-21.13375 11.1028125 -21.13375 11.1028125 -20.25 10.1875 C-17.09952973 7.12454279 -12.54156468 4 -8 4 C-7.67 3.01 -7.34 2.02 -7 1 C-4.05697101 -0.96201933 -3.48011144 -1.16003715 0 0 Z " fill="#8754D8" transform="translate(917,387)"/>
<path d="M0 0 C2.66666667 0.66666667 5.33333333 1.33333333 8 2 C8 2.66 8 3.32 8 4 C9.4540625 4.4021875 9.4540625 4.4021875 10.9375 4.8125 C11.948125 5.204375 12.95875 5.59625 14 6 C14.33 6.99 14.66 7.98 15 9 C16.31774196 9.39044206 17.65667272 9.70955086 19 10 C22.62082178 11.68410315 26.08542908 13.60448166 29.5625 15.5625 C32.64225946 17.2896624 35.66268466 18.81579133 39 20 C39 20.66 39 21.32 39 22 C39.556875 22.12375 40.11375 22.2475 40.6875 22.375 C43.22114364 23.05976855 45.57921032 23.99133763 48 25 C48 25.66 48 26.32 48 27 C35.33706179 23.60814155 24.2286695 15.78690401 13.11645508 9.04467773 C8.83638162 6.46044972 4.52414014 4.12357598 0 2 C0 1.34 0 0.68 0 0 Z " fill="#6F30D2" transform="translate(516,971)"/>
<path d="M0 0 C0 0.66 0 1.32 0 2 C-0.73935791 2.40726318 -0.73935791 2.40726318 -1.49365234 2.82275391 C-11.15090532 8.14832888 -20.7538444 13.50771592 -30.12890625 19.31982422 C-31.7529058 20.32624182 -33.37793461 21.33100016 -35.00390625 22.33422852 C-36.64968758 23.35012503 -38.29298475 24.3700586 -39.93359375 25.39428711 C-40.68769531 25.85971924 -41.44179688 26.32515137 -42.21875 26.8046875 C-42.89873047 27.22733887 -43.57871094 27.64999023 -44.27929688 28.08544922 C-46 29 -46 29 -48 29 C-47 26 -47 26 -44.1875 24.5 C-43.135625 24.005 -42.08375 23.51 -41 23 C-40.37351562 22.52820313 -39.74703125 22.05640625 -39.1015625 21.5703125 C-36.88141118 19.91138902 -34.64024929 18.6635411 -32.1875 17.375 C-27.49828251 14.85776277 -22.92630719 12.19256859 -18.375 9.4375 C-2.74887857 0 -2.74887857 0 0 0 Z " fill="#8351D3" transform="translate(803,872)"/>
<path d="M0 0 C0.99 0.33 1.98 0.66 3 1 C-2.625 5 -2.625 5 -6 5 C-6.33 5.99 -6.66 6.98 -7 8 C-9.29296875 9.4296875 -9.29296875 9.4296875 -12.1875 10.875 C-15.52891125 12.61270676 -18.55392777 14.2473165 -21.375 16.75 C-23.92774698 18.93806884 -25.90430741 19.82865686 -29 21 C-29.43570313 21.45761719 -29.87140625 21.91523437 -30.3203125 22.38671875 C-32.41290017 24.39657621 -34.57724516 25.4332217 -37.1875 26.6875 C-38.53908203 27.34298828 -38.53908203 27.34298828 -39.91796875 28.01171875 C-40.94857422 28.50091797 -40.94857422 28.50091797 -42 29 C-42.33 28.34 -42.66 27.68 -43 27 C-42.01 27 -41.02 27 -40 27 C-40 26.34 -40 25.68 -40 25 C-36.39013511 22.06698478 -33.21383792 19.94039588 -28.8125 18.4375 C-25.2754006 17.22246585 -23.58949074 15.74642957 -21 13 C-18.06955095 10.8909647 -15.04232395 8.94295107 -12 7 C-10.576875 6.071875 -10.576875 6.071875 -9.125 5.125 C-7 4 -7 4 -4 4 C-4 3.34 -4 2.68 -4 2 C-2.68 2 -1.36 2 0 2 C0 1.34 0 0.68 0 0 Z " fill="#8755D8" transform="translate(715,510)"/>
<path d="M0 0 C3.45269452 1.2932354 6.49675131 2.80399914 9.625 4.75 C14.98262786 8.02589896 20.46645566 11.03334695 26 14 C26 14.66 26 15.32 26 16 C26.515625 16.103125 27.03125 16.20625 27.5625 16.3125 C30.86789172 17.24478997 33.89628829 18.53598504 37 20 C37.495 20.99 37.495 20.99 38 22 C39.97522846 23.04808041 41.97481509 24.0520411 44 25 C44 25.66 44 26.32 44 27 C39.21049371 25.30903032 35.02798598 22.77957562 30.6875 20.1875 C29.96626953 19.76146484 29.24503906 19.33542969 28.50195312 18.89648438 C24.91015091 16.76717382 21.3495249 14.59874145 17.8203125 12.3671875 C13.8056407 9.84247656 9.64274698 7.67846496 5.41796875 5.52734375 C2.91141133 3.94404173 1.59879699 2.46990233 0 0 Z " fill="#7031D2" transform="translate(428,919)"/>
<path d="M0 0 C1.98 0.66 3.96 1.32 6 2 C6 2.66 6 3.32 6 4 C7.32 4 8.64 4 10 4 C10 4.66 10 5.32 10 6 C10.99 6 11.98 6 13 6 C13 6.99 13 7.98 13 9 C13.598125 9.144375 14.19625 9.28875 14.8125 9.4375 C16.56150404 9.8872439 18.28677023 10.42892341 20 11 C20 11.66 20 12.32 20 13 C21.32 13 22.64 13 24 13 C25.48828125 14.36328125 25.48828125 14.36328125 27 16 C29.03232242 17.19599068 29.03232242 17.19599068 31.1875 18.1875 C31.90292969 18.53167969 32.61835937 18.87585938 33.35546875 19.23046875 C34.16951172 19.61138672 34.16951172 19.61138672 35 20 C35 20.66 35 21.32 35 22 C35.598125 22.144375 36.19625 22.28875 36.8125 22.4375 C38.56150404 22.8872439 40.28677023 23.42892341 42 24 C41.67 24.66 41.34 25.32 41 26 C40.46890625 25.72285156 39.9378125 25.44570313 39.390625 25.16015625 C38.68421875 24.79792969 37.9778125 24.43570313 37.25 24.0625 C36.55390625 23.70285156 35.8578125 23.34320312 35.140625 22.97265625 C33.09775567 22.04441818 31.18884624 21.46833422 29 21 C29 20.34 29 19.68 29 19 C27.68 19 26.36 19 25 19 C25 18.34 25 17.68 25 17 C24.34 17 23.68 17 23 17 C22.67 16.34 22.34 15.68 22 15 C19.97536745 14.34786708 19.97536745 14.34786708 18 14 C18 13.34 18 12.68 18 12 C17.113125 11.731875 16.22625 11.46375 15.3125 11.1875 C12.2090334 10.0749365 9.68889315 8.89804222 7 7 C7 6.34 7 5.68 7 5 C6.21625 4.731875 5.4325 4.46375 4.625 4.1875 C2 3 2 3 0 0 Z " fill="#7F46D8" transform="translate(531,571)"/>
<path d="M0 0 C3.99208837 1.50167943 7.68503147 3.35070013 11.4375 5.375 C12.52933594 5.96023438 13.62117188 6.54546875 14.74609375 7.1484375 C17.93907409 8.96533147 20.94826957 10.9573751 24 13 C25.79920396 14.02372914 27.61156201 15.024753 29.4375 16 C33.66238388 18.27404952 37.8457048 20.59974055 42 23 C42 23.66 42 24.32 42 25 C37.02251497 23.72372179 33.45293676 21.38955257 29.29296875 18.51171875 C26.61893993 16.748773 23.86816252 15.37961114 20.98046875 14.0078125 C18.13777227 12.56123322 15.51025541 10.81986053 12.859375 9.05078125 C10.91413657 7.95147634 9.18165607 7.43922722 7 7 C7 6.34 7 5.68 7 5 C5.5459375 4.5978125 5.5459375 4.5978125 4.0625 4.1875 C3.051875 3.795625 2.04125 3.40375 1 3 C0.67 2.01 0.34 1.02 0 0 Z " fill="#6F31D2" transform="translate(457,806)"/>
<path d="M0 0 C2.31 0.66 4.62 1.32 7 2 C7 2.66 7 3.32 7 4 C9.07831893 5.04629328 11.16125192 6.0768662 13.26171875 7.078125 C18.33906057 9.53094713 22.97961731 12.24164904 27.6171875 15.44140625 C31.9123127 18.2508406 36.4628152 20.60843717 41 23 C41 23.66 41 24.32 41 25 C40.43667969 24.71640625 39.87335937 24.4328125 39.29296875 24.140625 C37.7809289 23.38846889 36.26272871 22.64855462 34.73828125 21.921875 C29.61780478 19.44821487 24.96222857 16.69793892 20.28515625 13.47265625 C17.13298642 11.44125791 13.81128174 9.86140037 10.44140625 8.2265625 C6.83869007 6.41655789 3.16295699 4.51799649 0 2 C0 1.34 0 0.68 0 0 Z " fill="#7133D3" transform="translate(474,946)"/>
<path d="M0 0 C0 0.66 0 1.32 0 2 C-1.65 2.33 -3.3 2.66 -5 3 C-2.25 0 -2.25 0 0 0 Z M-7 3 C-6.34 3 -5.68 3 -5 3 C-5 3.66 -5 4.32 -5 5 C-5.99 4.67 -6.98 4.34 -8 4 C-7.67 3.67 -7.34 3.34 -7 3 Z M-11 5 C-10.01 5.33 -9.02 5.66 -8 6 C-9.42859407 7.03325986 -10.86822383 8.05127634 -12.3125 9.0625 C-13.51326172 9.91521484 -13.51326172 9.91521484 -14.73828125 10.78515625 C-15.48464844 11.18605469 -16.23101563 11.58695313 -17 12 C-17.99 11.67 -18.98 11.34 -20 11 C-18.57140593 9.96674014 -17.13177617 8.94872366 -15.6875 7.9375 C-14.88699219 7.36902344 -14.08648438 6.80054688 -13.26171875 6.21484375 C-12.51535156 5.81394531 -11.76898437 5.41304687 -11 5 Z M-20 13 C-20.96099609 13.56267578 -20.96099609 13.56267578 -21.94140625 14.13671875 C-26.02427716 16.55236666 -30.02665689 18.94799039 -33.8125 21.8125 C-36.7610748 23.83603173 -38.49323786 24.68120344 -42 25 C-42 24.34 -42 23.68 -42 23 C-41.29875 22.62488281 -40.5975 22.24976563 -39.875 21.86328125 C-34.639647 19.03932046 -29.54856686 16.17453678 -24.65625 12.78515625 C-23 12 -23 12 -20 13 Z " fill="#8250D3" transform="translate(693,806)"/>
<path d="M0 0 C0.66 0 1.32 0 2 0 C2 0.66 2 1.32 2 2 C3.65 2 5.3 2 7 2 C7 2.66 7 3.32 7 4 C7.99 4 8.98 4 10 4 C10 4.66 10 5.32 10 6 C10.804375 6.226875 11.60875 6.45375 12.4375 6.6875 C16.91285739 8.33631588 20.88721318 10.60544412 25 13 C25 13.66 25 14.32 25 15 C25.99 15 26.98 15 28 15 C28 15.99 28 16.98 28 18 C28.556875 18.103125 29.11375 18.20625 29.6875 18.3125 C32.44176578 19.13133577 34.58727657 20.45853781 37 22 C34.04725901 22 32.50941597 21.56108169 29.8125 20.5 C29.09707031 20.2215625 28.38164062 19.943125 27.64453125 19.65625 C27.10183594 19.4396875 26.55914062 19.223125 26 19 C26 18.34 26 17.68 26 17 C25.38125 16.896875 24.7625 16.79375 24.125 16.6875 C22 16 22 16 20 13 C17.99978905 11.86137576 15.95096774 10.80631435 13.875 9.8125 C12.77929688 9.28269531 11.68359375 8.75289063 10.5546875 8.20703125 C9.71164062 7.80871094 8.86859375 7.41039062 8 7 C8 6.34 8 5.68 8 5 C5.36 4.34 2.72 3.68 0 3 C0 2.01 0 1.02 0 0 Z " fill="#7D43D8" transform="translate(296,425)"/>
<path d="M0 0 C0 0.66 0 1.32 0 2 C-0.825 2.46148438 -1.65 2.92296875 -2.5 3.3984375 C-9.93841382 7.59024479 -17.23515092 11.94543842 -24.40429688 16.58544922 C-28.48017825 19.18669761 -32.50618245 21.20827145 -37 23 C-35.66161414 19.75828148 -34.66068026 18.49240981 -31.4375 17.125 C-28.26680362 15.66556394 -25.44175368 14.037567 -22.5625 12.0625 C-18.8618789 9.5338484 -15.08498889 7.30037052 -11.14453125 5.16796875 C-9.0902095 4.04913049 -7.07697125 2.87616316 -5.0625 1.6875 C-2 0 -2 0 0 0 Z " fill="#8351D3" transform="translate(645,964)"/>
<path d="M0 0 C0.99 0.33 1.98 0.66 3 1 C3.33 2.98 3.66 4.96 4 7 C4.66 7 5.32 7 6 7 C7.21875 8.49609375 7.21875 8.49609375 8.5 10.4375 C10.2865363 13.22531847 10.2865363 13.22531847 13 15 C13 15.66 13 16.32 13 17 C14.32 17.33 15.64 17.66 17 18 C17 18.66 17 19.32 17 20 C17.825 20.226875 18.65 20.45375 19.5 20.6875 C23.66509486 22.24941057 27.5000943 24.22850107 31 27 C31 27.66 31 28.32 31 29 C30.15115234 28.566875 30.15115234 28.566875 29.28515625 28.125 C27.81115103 27.39933589 26.3191192 26.7087141 24.80859375 26.0625 C15.24182154 21.77557736 7.44940005 14.97334542 2 6 C0.75 2.625 0.75 2.625 0 0 Z " fill="#7032D3" transform="translate(430,663)"/>
<path d="M0 0 C-3.91325839 3.50843856 -8.20758139 5.82863031 -12.8125 8.28125 C-16.99679228 10.53748604 -21.11188212 12.90694378 -25.22827148 15.28417969 C-28.11341986 16.94463731 -31.00020114 18.55537942 -34 20 C-32.86557905 16.59673714 -32.47056879 16.39957182 -29.5 14.73046875 C-28.78158936 14.31925781 -28.06317871 13.90804687 -27.32299805 13.484375 C-26.17311401 12.84242188 -26.17311401 12.84242188 -25 12.1875 C-23.44284699 11.29760562 -21.88684597 10.40569229 -20.33203125 9.51171875 C-19.20788818 8.86662354 -19.20788818 8.86662354 -18.06103516 8.20849609 C-14.86191461 6.33267914 -11.80162596 4.2774023 -8.76171875 2.15625 C-3.63181479 -1.21060493 -3.63181479 -1.21060493 0 0 Z " fill="#8350D3" transform="translate(661,708)"/>
<path d="M0 0 C4.90388381 1.2574061 8.40681068 3.518832 12.50390625 6.3515625 C16.01589465 8.67090382 19.69288465 10.62682302 23.40234375 12.609375 C26.64017886 14.34271229 29.82023509 16.1628025 33 18 C33 18.66 33 19.32 33 20 C29.54730548 18.7067646 26.50324869 17.19600086 23.375 15.25 C18.84447282 12.48171961 14.23398938 9.91216756 9.5625 7.390625 C6.3445328 5.64428914 3.17005583 3.83158781 0 2 C0 1.34 0 0.68 0 0 Z " fill="#7134D2" transform="translate(239,809)"/>
<path d="M0 0 C3.65564909 0.68761019 6.51867272 2.25449545 9.75 4.0625 C10.73484375 4.61035156 11.7196875 5.15820312 12.734375 5.72265625 C13.48203125 6.14417969 14.2296875 6.56570313 15 7 C15 7.66 15 8.32 15 9 C15.515625 9.0825 16.03125 9.165 16.5625 9.25 C20.00438307 10.30904095 22.92561303 12.16940029 26 14 C27.31108495 14.75247093 28.62352938 15.50257946 29.9375 16.25 C30.948125 16.8275 31.95875 17.405 33 18 C33 18.66 33 19.32 33 20 C28.21049371 18.30903032 24.02798598 15.77957562 19.6875 13.1875 C18.96626953 12.76146484 18.24503906 12.33542969 17.50195312 11.89648438 C13.19596157 9.34378445 8.94505482 6.7212074 4.73754883 4.0090332 C2.86192722 2.84122367 2.86192722 2.84122367 0 2 C0 1.34 0 0.68 0 0 Z " fill="#6E2FD3" transform="translate(493,710)"/>
<path d="M0 0 C1.32 0 2.64 0 4 0 C4 0.66 4 1.32 4 2 C4.99 2 5.98 2 7 2 C7 2.66 7 3.32 7 4 C8.32 4.33 9.64 4.66 11 5 C11 5.66 11 6.32 11 7 C12.32 7 13.64 7 15 7 C15 7.66 15 8.32 15 9 C15.99 9 16.98 9 18 9 C18 9.66 18 10.32 18 11 C19.3303125 11.4021875 19.3303125 11.4021875 20.6875 11.8125 C23.7909666 12.9250635 26.31110685 14.10195778 29 16 C29 16.66 29 17.32 29 18 C29.99 18 30.98 18 32 18 C32.495 19.485 32.495 19.485 33 21 C29.66666667 19.66666667 26.33333333 18.33333333 23 17 C23 16.34 23 15.68 23 15 C20.66785852 13.79371992 18.50357861 12.8345262 16 12 C16 11.34 16 10.68 16 10 C15.030625 9.731875 14.06125 9.46375 13.0625 9.1875 C11.5465625 8.5996875 11.5465625 8.5996875 10 8 C9.67 7.01 9.34 6.02 9 5 C8.01 5 7.02 5 6 5 C6 4.34 6 3.68 6 3 C5.195625 2.87625 4.39125 2.7525 3.5625 2.625 C2.716875 2.41875 1.87125 2.2125 1 2 C0.67 1.34 0.34 0.68 0 0 Z " fill="#824CD9" transform="translate(263,404)"/>
<path d="M0 0 C-6.81309453 4.25535472 -13.65892 8.43692199 -20.625 12.4375 C-21.21619629 12.77910156 -21.80739258 13.12070312 -22.41650391 13.47265625 C-24.92988558 14.90596113 -27.24536908 16.08178969 -30 17 C-30 16.34 -30 15.68 -30 15 C-28.26953125 13.7734375 -28.26953125 13.7734375 -25.8125 12.375 C-21.53802888 9.8993434 -17.31825635 7.35953466 -13.125 4.75 C-3.57022708 -1.19007569 -3.57022708 -1.19007569 0 0 Z " fill="#8452D3" transform="translate(677,947)"/>
<path d="M0 0 C0 0.66 0 1.32 0 2 C-0.76441406 2.40089844 -1.52882813 2.80179688 -2.31640625 3.21484375 C-9.40500548 6.97666356 -16.32805192 10.92310565 -23.14868164 15.15405273 C-27.7896602 18 -27.7896602 18 -30 18 C-30 17.34 -30 16.68 -30 16 C-27.62109375 14.4140625 -27.62109375 14.4140625 -24.4375 12.625 C-22.78621094 11.68914063 -22.78621094 11.68914063 -21.1015625 10.734375 C-19.56628906 9.87585938 -19.56628906 9.87585938 -18 9 C-16.77000487 8.29310625 -15.5406411 7.58511002 -14.3125 6.875 C-12.6728125 5.946875 -12.6728125 5.946875 -11 5 C-10.22398437 4.55398438 -9.44796875 4.10796875 -8.6484375 3.6484375 C-7.83632813 3.18695312 -7.02421875 2.72546875 -6.1875 2.25 C-5.43855469 1.82203125 -4.68960938 1.3940625 -3.91796875 0.953125 C-2 0 -2 0 0 0 Z " fill="#8350D4" transform="translate(834,854)"/>
<path d="M0 0 C3.62528568 -0.20140476 5.86501708 0.14223235 9 2 C9 2.99 9 3.98 9 5 C9.99 5 10.98 5 12 5 C12 5.66 12 6.32 12 7 C12.85851562 7.19916016 12.85851562 7.19916016 13.734375 7.40234375 C15.97650875 7.99380317 18.08579619 8.73288854 20.25 9.5625 C20.95640625 9.83191406 21.6628125 10.10132813 22.390625 10.37890625 C22.92171875 10.58386719 23.4528125 10.78882813 24 11 C24 11.66 24 12.32 24 13 C24.99 13 25.98 13 27 13 C27.33 13.99 27.66 14.98 28 16 C17.90882638 12.90009699 17.90882638 12.90009699 14 10 C14 9.34 14 8.68 14 8 C13.401875 7.87625 12.80375 7.7525 12.1875 7.625 C10 7 10 7 7 5 C7 4.34 7 3.68 7 3 C4.69 2.34 2.38 1.68 0 1 C0 0.67 0 0.34 0 0 Z " fill="#7A3ED7" transform="translate(430,510)"/>
<path d="M0 0 C4.42174138 1.21597888 7.8412105 3.02144305 11.6328125 5.5 C15.54501756 7.97902103 19.61284097 10.19231594 23.65625 12.44921875 C24.4296875 12.96097656 25.203125 13.47273437 26 14 C26 14.66 26 15.32 26 16 C21.78843894 14.45840973 17.98663859 12.37832057 14.125 10.125 C13.53847656 9.78597656 12.95195312 9.44695313 12.34765625 9.09765625 C11.16761299 8.41556531 9.98824419 7.73230611 8.80957031 7.04785156 C5.88067757 5.35184405 2.93995161 3.6767499 0 2 C0 1.34 0 0.68 0 0 Z " fill="#6D2ED2" transform="translate(289,838)"/>
<path d="M0 0 C3.38201128 1.24910521 6.18530825 2.67097845 9.125 4.75 C13.51518471 7.76548041 18.08384342 10.25998577 22.8125 12.703125 C25 14 25 14 26 16 C16.93082598 14.19037363 7.29933209 7.47802873 0 2 C0 1.34 0 0.68 0 0 Z " fill="#7032D2" transform="translate(501,831)"/>
<path d="M0 0 C-1.24054448 1.01170618 -2.4928702 2.00897797 -3.75 3 C-4.44609375 3.556875 -5.1421875 4.11375 -5.859375 4.6875 C-8 6 -8 6 -12 6 C-12 6.66 -12 7.32 -12 8 C-15 10 -15 10 -18 10 C-18.33 10.99 -18.66 11.98 -19 13 C-21.0625 13.6875 -21.0625 13.6875 -23 14 C-21.60724746 10.6227555 -20.17726069 9.12929695 -17.0625 7.25 C-16.37285156 6.82203125 -15.68320312 6.3940625 -14.97265625 5.953125 C-13 5 -13 5 -10 5 C-10 4.34 -10 3.68 -10 3 C-3.375 -1.125 -3.375 -1.125 0 0 Z " fill="#8754D8" transform="translate(670,541)"/>
<path d="M0 0 C0.66 0 1.32 0 2 0 C0.13844048 8.06675794 -5.18617454 14.05806676 -11.9375 18.5625 C-13.28206706 19.39078922 -14.63288055 20.20948876 -16 21 C-14.46593371 17.68532105 -13.13688367 15.96055229 -10 14 C-9.34 14 -8.68 14 -8 14 C-8 13.34 -8 12.68 -8 12 C-7.34 12 -6.68 12 -6 12 C-5.7525 11.319375 -5.505 10.63875 -5.25 9.9375 C-3.75802092 6.43134917 -1.93164489 3.28379632 0 0 Z " fill="#8452D3" transform="translate(929,788)"/>
<path d="M0 0 C3.465 1.98 3.465 1.98 7 4 C7 4.66 7 5.32 7 6 C7.61875 6.103125 8.2375 6.20625 8.875 6.3125 C11 7 11 7 13 10 C8.25 8.125 8.25 8.125 6 7 C6 6.34 6 5.68 6 5 C4.02 5 2.04 5 0 5 C-0.66 6.65 -1.32 8.3 -2 10 C-2.66 10 -3.32 10 -4 10 C-3.52449439 8.51965236 -3.04448784 7.04074979 -2.5625 5.5625 C-2.29566406 4.73878906 -2.02882812 3.91507812 -1.75390625 3.06640625 C-1 1 -1 1 0 0 Z " fill="#7234D3" transform="translate(222,378)"/>
<path d="M0 0 C5.00235652 1.28265552 8.62540079 3.64018853 12.80859375 6.53515625 C15.4507043 8.30127293 18.11859499 9.67012076 21 11 C21 11.66 21 12.32 21 13 C15.99764348 11.71734448 12.37459921 9.35981147 8.19140625 6.46484375 C5.5492957 4.69872707 2.88140501 3.32987924 0 2 C0 1.34 0 0.68 0 0 Z " fill="#7032D2" transform="translate(435,793)"/>
<path d="M0 0 C0 0.66 0 1.32 0 2 C-0.86882813 2.45890625 -1.73765625 2.9178125 -2.6328125 3.390625 C-3.78523437 4.00421875 -4.93765625 4.6178125 -6.125 5.25 C-7.83042969 6.15492188 -7.83042969 6.15492188 -9.5703125 7.078125 C-13.03718966 8.9580044 -13.03718966 8.9580044 -16.3046875 11.234375 C-19 13 -19 13 -21 13 C-21 12.34 -21 11.68 -21 11 C-18 9 -18 9 -15 9 C-15 8.34 -15 7.68 -15 7 C-12.87767021 5.82823482 -10.75242209 4.66245215 -8.625 3.5 C-7.72007812 2.99919922 -7.72007812 2.99919922 -6.796875 2.48828125 C-2.2265625 0 -2.2265625 0 0 0 Z " fill="#824FD3" transform="translate(625,728)"/>
<path d="M0 0 C-1.07749442 0.82022749 -2.16229508 1.63086169 -3.25 2.4375 C-3.85328125 2.88996094 -4.4565625 3.34242188 -5.078125 3.80859375 C-7.06292756 5.03900997 -8.71987655 5.56112668 -11 6 C-11.59732819 8.76264289 -12 11.16032769 -12 14 C-12.66 14 -13.32 14 -14 14 C-15.03023161 10.72199032 -15.17153978 9.38596452 -13.75 6.1875 C-13.1725 5.465625 -12.595 4.74375 -12 4 C-11.01 4 -10.02 4 -9 4 C-9 3.34 -9 2.68 -9 2 C-5.59159007 -0.55630744 -4.03546861 -1.28479663 0 0 Z " fill="#8552D6" transform="translate(831,441)"/>
<path d="M0 0 C0 0.66 0 1.32 0 2 C-0.95261719 2.54269531 -1.90523437 3.08539062 -2.88671875 3.64453125 C-4.15366244 4.36715839 -5.42058859 5.08981627 -6.6875 5.8125 C-7.31333984 6.16892578 -7.93917969 6.52535156 -8.58398438 6.89257812 C-9.19951172 7.24384766 -9.81503906 7.59511719 -10.44921875 7.95703125 C-11.05427246 8.3020166 -11.65932617 8.64700195 -12.28271484 9.00244141 C-13.8163119 9.89329691 -15.32606811 10.82490581 -16.83203125 11.76171875 C-19 13 -19 13 -21 13 C-21 12.34 -21 11.68 -21 11 C-20.04738281 10.45730469 -19.09476563 9.91460938 -18.11328125 9.35546875 C-16.84633756 8.63284161 -15.57941141 7.91018373 -14.3125 7.1875 C-13.68666016 6.83107422 -13.06082031 6.47464844 -12.41601562 6.10742188 C-11.80048828 5.75615234 -11.18496094 5.40488281 -10.55078125 5.04296875 C-9.94572754 4.6979834 -9.34067383 4.35299805 -8.71728516 3.99755859 C-7.1836881 3.10670309 -5.67393189 2.17509419 -4.16796875 1.23828125 C-2 0 -2 0 0 0 Z " fill="#8350D3" transform="translate(753,901)"/>
<path d="M0 0 C-1.38481179 4.15443538 -3.43998734 4.65008292 -7.25 6.6875 C-8.38953125 7.31011719 -9.5290625 7.93273437 -10.703125 8.57421875 C-13.84356937 9.93234931 -15.64517931 10.33422086 -19 10 C-17.5281596 7.0563192 -15.22320907 6.96214425 -12.26953125 5.9296875 C-9.1426397 4.64879217 -6.45674444 2.87417603 -3.6640625 0.98828125 C-2 0 -2 0 0 0 Z " fill="#814DD2" transform="translate(605,987)"/>
<path d="M0 0 C0.515625 0.2475 1.03125 0.495 1.5625 0.75 C-0.43036509 2.09518393 -2.4292163 3.42809174 -4.4375 4.75 C-5.44683594 5.41515625 -5.44683594 5.41515625 -6.4765625 6.09375 C-7.16492188 6.5371875 -7.85328125 6.980625 -8.5625 7.4375 C-9.20445312 7.85386719 -9.84640625 8.27023437 -10.5078125 8.69921875 C-12.48100485 9.77368989 -14.24348848 10.30632211 -16.4375 10.75 C-16.4375 10.09 -16.4375 9.43 -16.4375 8.75 C-13.4375 6.75 -13.4375 6.75 -9.4375 6.75 C-9.4375 5.76 -9.4375 4.77 -9.4375 3.75 C-3.0375 -0.31153846 -3.0375 -0.31153846 0 0 Z " fill="#8552D7" transform="translate(645.4375,555.25)"/>
<path d="M0 0 C1.32 0 2.64 0 4 0 C4 0.66 4 1.32 4 2 C4.99 2 5.98 2 7 2 C7 2.66 7 3.32 7 4 C7.598125 4.12375 8.19625 4.2475 8.8125 4.375 C11 5 11 5 14 7 C14 7.66 14 8.32 14 9 C14.61875 9.12375 15.2375 9.2475 15.875 9.375 C18 10 18 10 20 12 C17.61435923 11.42415568 15.33317216 10.77772405 13 10 C13 9.34 13 8.68 13 8 C12.401875 7.855625 11.80375 7.71125 11.1875 7.5625 C9.43849596 7.1127561 7.71322977 6.57107659 6 6 C6 5.01 6 4.02 6 3 C5.38125 2.87625 4.7625 2.7525 4.125 2.625 C2 2 2 2 0 0 Z " fill="#824BDA" transform="translate(508,557)"/>
<path d="M0 0 C13.00626959 3.97413793 13.00626959 3.97413793 17 7 C17.71875 9.12890625 17.71875 9.12890625 18 11 C15.0625 10.1875 15.0625 10.1875 12 9 C11.67 8.01 11.34 7.02 11 6 C9.0187415 5.27954236 7.01495907 4.61998741 5 4 C2.125 2.4375 2.125 2.4375 0 1 C0 0.67 0 0.34 0 0 Z " fill="#783DD7" transform="translate(235,388)"/>
<path d="M0 0 C0 0.66 0 1.32 0 2 C-2.26896632 3.31582063 -4.54003187 4.62775236 -6.8125 5.9375 C-7.45509766 6.31068359 -8.09769531 6.68386719 -8.75976562 7.06835938 C-11.48316424 8.63466635 -14.01108122 10.00369374 -17 11 C-17 10.34 -17 9.68 -17 9 C-14.98828125 7.59765625 -14.98828125 7.59765625 -12.3125 6.0625 C-11.44238281 5.55847656 -10.57226562 5.05445313 -9.67578125 4.53515625 C-8.79277344 4.02855469 -7.90976562 3.52195312 -7 3 C-6.10667969 2.44183594 -5.21335937 1.88367188 -4.29296875 1.30859375 C-2 0 -2 0 0 0 Z " fill="#8756D6" transform="translate(695,935)"/>
<path d="M0 0 C3.65564909 0.68761019 6.51867272 2.25449545 9.75 4.0625 C10.73484375 4.61035156 11.7196875 5.15820312 12.734375 5.72265625 C13.48203125 6.14417969 14.2296875 6.56570313 15 7 C15 7.66 15 8.32 15 9 C11.45756548 7.63408831 8.07372071 6.09068516 4.6875 4.375 C3.80449219 3.92898438 2.92148437 3.48296875 2.01171875 3.0234375 C1.34785156 2.68570313 0.68398438 2.34796875 0 2 C0 1.34 0 0.68 0 0 Z " fill="#6D2ED2" transform="translate(462,692)"/>
<path d="M0 0 C5.1576857 1.41836357 9.79975258 3.67391575 14 7 C14 7.66 14 8.32 14 9 C9.02790438 7.23570801 4.56561939 4.6060834 0 2 C0 1.34 0 0.68 0 0 Z " fill="#7032D2" transform="translate(543,739)"/>
<path d="M0 0 C5.1576857 1.41836357 9.79975258 3.67391575 14 7 C14 7.66 14 8.32 14 9 C8.8423143 7.58163643 4.20024742 5.32608425 0 2 C0 1.34 0 0.68 0 0 Z " fill="#6E2FD2" transform="translate(528,730)"/>
<path d="M0 0 C1.98 0.66 3.96 1.32 6 2 C6 2.66 6 3.32 6 4 C7.32 4 8.64 4 10 4 C10 4.66 10 5.32 10 6 C10.99 6 11.98 6 13 6 C12.67 6.66 12.34 7.32 12 8 C10.35 7.67 8.7 7.34 7 7 C7 6.34 7 5.68 7 5 C6.21625 4.731875 5.4325 4.46375 4.625 4.1875 C2 3 2 3 0 0 Z " fill="#834CD9" transform="translate(531,571)"/>
<path d="M0 0 C0 0.99 0 1.98 0 3 C-4.95 5.475 -4.95 5.475 -10 8 C-8.76736651 4.30209954 -7.79947549 4.0645154 -4.4375 2.3125 C-3.61121094 1.87550781 -2.78492188 1.43851563 -1.93359375 0.98828125 C-1.29550781 0.66214844 -0.65742188 0.33601562 0 0 Z " fill="#9771D5" transform="translate(507,206)"/>
<path d="M0 0 C4.05281712 1.22527029 7.44360764 2.69880494 11 5 C10.67 5.66 10.34 6.32 10 7 C8.51719804 6.21516341 7.0388502 5.42190666 5.5625 4.625 C4.73878906 4.18414063 3.91507812 3.74328125 3.06640625 3.2890625 C1 2 1 2 0 0 Z " fill="#844EDA" transform="translate(497,550)"/>
<path d="M0 0 C3.91211733 1.15585285 6.8745041 2.35534962 10 5 C9.67 5.66 9.34 6.32 9 7 C6.03 5.35 3.06 3.7 0 2 C0 1.34 0 0.68 0 0 Z " fill="#7134D2" transform="translate(316,854)"/>
<path d="M0 0 C-3.1254959 2.64465038 -6.08788267 3.84414715 -10 5 C-10 4.34 -10 3.68 -10 3 C-3.375 -1.125 -3.375 -1.125 0 0 Z " fill="#8655D4" transform="translate(704,801)"/>
<path d="M0 0 C-1.07749442 0.82022749 -2.16229508 1.63086169 -3.25 2.4375 C-3.85328125 2.88996094 -4.4565625 3.34242188 -5.078125 3.80859375 C-7.06292756 5.03900997 -8.71987655 5.56112668 -11 6 C-11 5.34 -11 4.68 -11 4 C-9.35546875 2.67578125 -9.35546875 2.67578125 -7.1875 1.3125 C-6.47980469 0.85488281 -5.77210938 0.39726563 -5.04296875 -0.07421875 C-3 -1 -3 -1 0 0 Z " fill="#8653D7" transform="translate(615,576)"/>
<path d="M0 0 C0 0.66 0 1.32 0 2 C-6.75 6 -6.75 6 -9 6 C-8 3 -8 3 -5.0625 1.3125 C-2 0 -2 0 0 0 Z " fill="#8553D5" transform="translate(726,917)"/>
<path d="M0 0 C0 0.99 0 1.98 0 3 C-4.22222222 6 -4.22222222 6 -7 6 C-7 5.34 -7 4.68 -7 4 C-4.69 2.68 -2.38 1.36 0 0 Z " fill="#9770D5" transform="translate(365,289)"/>
</svg>
