<?xml version="1.0" encoding="UTF-8" standalone="no"?>
<svg width="900" height="600" xmlns="http://www.w3.org/2000/svg">
  <style>
    .box { fill: #f0f5ff; stroke: #4b6bdf; stroke-width: 2; }
    .arrow { stroke: #333; stroke-width: 2; marker-end: url(#arrowhead); }
    .bi-arrow { stroke: #333; stroke-width: 2; marker-end: url(#arrowhead); marker-start: url(#arrowstart); }
    .label { font-family: 'Arial', sans-serif; font-size: 14px; }
    .title { font-family: 'Arial', sans-serif; font-size: 24px; font-weight: bold; }
    .subtitle { font-family: 'Arial', sans-serif; font-size: 16px; font-style: italic; }
    .component { fill: #e1f5fe; stroke: #0288d1; stroke-width: 2; }
    .bioagent { fill: #e8f5e9; stroke: #388e3c; stroke-width: 2; }
    .kg { fill: #fff3e0; stroke: #ff9800; stroke-width: 2; }
    .storage { fill: #f3e5f5; stroke: #7b1fa2; stroke-width: 2; }
    .security { fill: #ffebee; stroke: #c62828; stroke-width: 2; }
    .user { fill: #e3f2fd; stroke: #1976d2; stroke-width: 2; }
    .dataverse { fill: #f1f8e9; stroke: #558b2f; stroke-width: 2; }
  </style>

  <defs>
    <marker id="arrowhead" markerWidth="10" markerHeight="7" refX="9" refY="3.5" orient="auto">
      <polygon points="0 0, 10 3.5, 0 7" fill="#333" />
    </marker>
    <marker id="arrowstart" markerWidth="10" markerHeight="7" refX="0" refY="3.5" orient="auto">
      <polygon points="10 0, 0 3.5, 10 7" fill="#333" />
    </marker>
  </defs>

  <!-- Title -->
  <text x="450" y="40" text-anchor="middle" class="title">Bio-DID-Seq System Integration</text>
  <text x="450" y="70" text-anchor="middle" class="subtitle">Comprehensive architecture for biological research data platform</text>

  <!-- User -->
  <rect x="375" y="100" width="150" height="60" rx="10" class="user" />
  <text x="450" y="130" text-anchor="middle" class="label" font-weight="bold">Researcher / User</text>
  <text x="450" y="150" text-anchor="middle" class="label">Web Interface / API</text>

  <!-- Core Bio-DID-Seq -->
  <rect x="50" y="250" width="200" height="150" rx="10" class="component" />
  <text x="150" y="275" text-anchor="middle" class="label" font-weight="bold">Bio-DID-Seq Core</text>
  <text x="150" y="300" text-anchor="middle" class="label">DID Management</text>
  <text x="150" y="325" text-anchor="middle" class="label">Identity Resolution</text>
  <text x="150" y="350" text-anchor="middle" class="label">UCAN Issuance</text>
  <text x="150" y="375" text-anchor="middle" class="label">API Gateway</text>

  <!-- BioAgents -->
  <rect x="350" y="250" width="200" height="150" rx="10" class="bioagent" />
  <text x="450" y="275" text-anchor="middle" class="label" font-weight="bold">BioAgents</text>
  <text x="450" y="300" text-anchor="middle" class="label">Knowledge Extraction</text>
  <text x="450" y="325" text-anchor="middle" class="label">Entity Recognition</text>
  <text x="450" y="350" text-anchor="middle" class="label">AI Processing</text>
  <text x="450" y="375" text-anchor="middle" class="label">Natural Language Interface</text>

  <!-- Knowledge Graph -->
  <rect x="650" y="250" width="200" height="150" rx="10" class="kg" />
  <text x="750" y="275" text-anchor="middle" class="label" font-weight="bold">Knowledge Graph</text>
  <text x="750" y="300" text-anchor="middle" class="label">Semantic Representation</text>
  <text x="750" y="325" text-anchor="middle" class="label">SPARQL Endpoint</text>
  <text x="750" y="350" text-anchor="middle" class="label">Entity Relationships</text>
  <text x="750" y="375" text-anchor="middle" class="label">Data Discovery</text>

  <!-- Storage Layer -->
  <rect x="200" y="450" width="200" height="100" rx="10" class="storage" />
  <text x="300" y="475" text-anchor="middle" class="label" font-weight="bold">IPFS Storage</text>
  <text x="300" y="500" text-anchor="middle" class="label">Content-Addressed Storage</text>
  <text x="300" y="525" text-anchor="middle" class="label">Decentralized Data Layer</text>

  <!-- Security Layer -->
  <rect x="500" y="450" width="200" height="100" rx="10" class="security" />
  <text x="600" y="475" text-anchor="middle" class="label" font-weight="bold">UCAN Authorization</text>
  <text x="600" y="500" text-anchor="middle" class="label">Capability-Based Security</text>
  <text x="600" y="525" text-anchor="middle" class="label">Delegated Permissions</text>

  <!-- Dataverse Integration -->
  <rect x="50" y="450" width="100" height="100" rx="10" class="dataverse" />
  <text x="100" y="475" text-anchor="middle" class="label" font-weight="bold">Dataverse</text>
  <text x="100" y="500" text-anchor="middle" class="label">DOI Registry</text>
  <text x="100" y="525" text-anchor="middle" class="label">Publication</text>

  <!-- Connection Arrows -->
  <!-- User to Core Systems -->
  <line x1="450" y1="160" x2="150" y2="250" class="bi-arrow" />
  <line x1="450" y1="160" x2="450" y2="250" class="bi-arrow" />
  <line x1="450" y1="160" x2="750" y2="250" class="bi-arrow" />
  
  <!-- Core Systems Interconnections -->
  <line x1="250" y1="325" x2="350" y2="325" class="bi-arrow" />
  <line x1="550" y1="325" x2="650" y2="325" class="bi-arrow" />
  
  <!-- Core to Support Systems -->
  <line x1="150" y1="400" x2="150" y2="450" class="arrow" />
  <line x1="150" y1="400" x2="300" y2="450" class="arrow" />
  <line x1="450" y1="400" x2="300" y2="450" class="arrow" />
  <line x1="450" y1="400" x2="600" y2="450" class="arrow" />
  <line x1="750" y1="400" x2="600" y2="450" class="arrow" />
  
  <!-- Security Layer connections -->
  <path d="M 600 550 L 600 570 L 150 570 L 150 425" class="arrow" style="fill: none;" />
  <path d="M 600 550 L 600 570 L 450 570 L 450 425" class="arrow" style="fill: none;" />
  <path d="M 600 550 L 600 570 L 750 570 L 750 425" class="arrow" style="fill: none;" />
</svg> 